<svg fill="#000000" xmlns="http://www.w3.org/2000/svg"  viewBox="-3 5 512 512" width="512px" height="512px"><path d="M 23.099609 21.099609 C 17.599609 21.099609 13.099609 25.599609 13.099609 31.099609 L 13.099609 411 C 13.099609 416.5 17.599609 421 23.099609 421 L 203 421 L 203 481 L 183 481 C 177.5 481 173 485.5 173 491 C 173 496.5 177.5 501 183 501 L 323 501 C 328.5 501 333 496.5 333 491 C 333 485.5 328.5 481 323 481 L 303 481 L 303 421 L 482.90039 421 C 488.40039 421 492.90039 416.5 492.90039 411 L 492.90039 31.099609 C 492.90039 25.499609 488.40039 21.099609 482.90039 21.099609 L 23.099609 21.099609 z M 33.099609 41.099609 L 472.90039 41.099609 L 472.90039 361 L 33.099609 361 L 33.099609 41.099609 z M 313 101 C 307.5 101 303 105.5 303 111 C 303 116.6 307.5 121 313 121 L 373 121 C 378.5 121 383 116.5 383 111 C 383 105.5 378.5 101 373 101 L 313 101 z M 83.099609 101.09961 C 77.599609 101.09961 73.099609 105.59961 73.099609 111.09961 L 73.099609 291 C 73.099609 296.5 77.499609 301 83.099609 301 L 263 301 C 268.5 301 273 296.5 273 291 L 273 111.09961 C 273 105.59961 268.5 101.09961 263 101.09961 L 83.099609 101.09961 z M 93.099609 121 L 253 121 L 253 161 L 93.099609 161 L 93.099609 121 z M 113 131 L 113 151 L 133 151 L 133 131 L 113 131 z M 153 131 L 153 151 L 173 151 L 173 131 L 153 131 z M 313 141 C 307.5 141 303 145.5 303 151 C 303 156.6 307.5 161 313 161 L 423 161 C 428.5 161 433 156.5 433 151 C 433 145.5 428.5 141 423 141 L 313 141 z M 93.099609 181 L 253 181 L 253 281 L 93.099609 281 L 93.099609 181 z M 143.05078 200.97461 C 140.50078 200.97461 137.95 201.95039 136 203.90039 L 116 223.90039 C 112.1 227.80039 112.1 234.1 116 238 L 136 258 C 139.9 261.9 146.19961 261.9 150.09961 258 C 153.99961 254.1 153.99961 247.80039 150.09961 243.90039 L 137.19922 231 L 150.09961 218.09961 C 153.99961 214.19961 153.99961 207.90039 150.09961 203.90039 C 148.14961 201.95039 145.60078 200.97461 143.05078 200.97461 z M 203.05078 200.97461 C 200.50078 200.97461 197.95 201.95039 196 203.90039 C 192.1 207.80039 192.1 214.1 196 218 L 208.90039 230.90039 L 196 243.80078 C 192.1 247.70078 192.1 254.00039 196 257.90039 C 199.9 261.80039 206.19961 261.80039 210.09961 257.90039 L 230.09961 237.90039 C 233.99961 234.00039 233.99961 227.70078 230.09961 223.80078 L 210.09961 203.90039 C 208.14961 201.95039 205.60078 200.97461 203.05078 200.97461 z M 364.72461 213.0625 C 361.84961 213.075 359 213.70039 356.5 214.90039 C 339.5 223.10039 339.8 251.90039 356.5 259.90039 C 361.5 262.30039 367.89961 262.30039 373.09961 259.90039 C 389.89961 251.90039 390.19961 223.00039 373.09961 214.90039 C 370.49961 213.65039 367.59961 213.05 364.72461 213.0625 z M 322 215.09961 L 295.80078 248.59961 L 295.80078 260 L 317.90039 260 L 317.90039 271 L 330.69922 271 L 330.69922 260 L 337.69922 260 L 337.69922 248.5 L 330.69922 248.5 L 330.69922 215.09961 L 322 215.09961 z M 417.19922 215.09961 L 391 248.59961 L 391 260 L 413.09961 260 L 413.09961 271 L 425.90039 271 L 425.90039 260 L 432.90039 260 L 432.90039 248.5 L 425.90039 248.5 L 425.90039 215.09961 L 417.19922 215.09961 z M 364.75 224.80078 C 368.775 224.80078 372.80078 229.00039 372.80078 237.40039 C 372.80078 241.10039 370.50078 249.90039 364.80078 249.90039 C 359.00078 249.90039 356.69922 243.20039 356.69922 237.40039 C 356.69922 229.00039 360.725 224.80078 364.75 224.80078 z M 319.40039 234.30078 L 319.40039 248.5 L 308.59961 248.5 L 319.40039 234.30078 z M 414.5 234.30078 L 414.5 248.5 L 403.69922 248.5 L 414.5 234.30078 z M 33.099609 381 L 472.90039 381 L 472.90039 401 L 33.099609 401 L 33.099609 381 z M 223 420.90039 L 283 420.90039 L 283 480.90039 L 223 480.90039 L 223 420.90039 z"/></svg>