<?xml version="1.0" standalone="no"?>
<!DOCTYPE svg PUBLIC "-//W3C//DTD SVG 20010904//EN"
 "http://www.w3.org/TR/2001/REC-SVG-20010904/DTD/svg10.dtd">
<svg version="1.0" xmlns="http://www.w3.org/2000/svg"
 width="592.000000pt" height="337.000000pt" viewBox="0 0 592.000000 337.000000"
 preserveAspectRatio="xMidYMid meet">

<g transform="translate(0.000000,337.000000) scale(0.100000,-0.100000)"
fill="#000000" stroke="none">
<path d="M1520 2507 c-195 -105 -680 -394 -703 -418 l-28 -30 3 -434 3 -435
25 -24 c37 -36 733 -436 759 -436 29 0 35 3 424 227 212 123 345 205 355 221
15 24 17 69 17 452 0 380 -2 429 -17 451 -20 31 -718 438 -763 446 -20 3 -45
-3 -75 -20z m94 -323 c13 -34 -7 -52 -152 -136 l-147 -86 0 -337 0 -336 55
-30 55 -31 154 88 c163 93 186 98 186 39 0 -24 -15 -36 -160 -120 -88 -52
-168 -94 -179 -95 -20 0 -110 48 -163 87 l-33 24 0 373 c0 365 0 373 21 392
40 36 304 183 330 184 16 0 29 -7 33 -16z m218 -119 c43 -25 82 -54 88 -64 5
-11 10 -62 10 -114 0 -77 -3 -97 -18 -110 -16 -15 -21 -14 -58 2 -22 10 -58
30 -80 43 l-40 26 -73 -43 c-84 -49 -116 -49 -116 0 0 25 10 35 80 76 44 27
92 48 108 49 15 0 45 -11 67 -25 22 -14 42 -25 45 -25 3 0 5 18 5 39 0 37 -3
41 -54 70 -29 17 -58 31 -63 31 -6 0 -69 -34 -141 -76 l-132 -76 0 -89 c0 -76
-3 -90 -18 -98 -14 -7 -25 -6 -40 5 -20 14 -22 24 -22 113 0 67 4 103 14 116
20 28 307 193 336 194 14 1 60 -19 102 -44z m-78 -318 c11 -8 17 -23 14 -37
-2 -19 -33 -42 -153 -111 l-150 -87 -5 -93 c-5 -89 -6 -94 -28 -97 -44 -6 -52
13 -52 118 0 78 3 102 18 119 14 18 316 200 333 201 3 0 13 -6 23 -13z m91
-227 c39 -23 73 -48 77 -54 4 -6 8 -54 8 -107 0 -78 -3 -101 -17 -117 -26 -29
-314 -192 -341 -192 -25 0 -41 42 -23 64 6 7 77 51 156 97 l145 83 0 62 c0 67
0 66 -71 107 l-45 26 -69 -40 c-80 -47 -118 -49 -123 -8 -4 31 1 35 102 92 91
52 95 52 201 -13z"/>
<path d="M3484 2259 c-86 -20 -114 -74 -114 -224 0 -121 17 -156 109 -229 90
-72 101 -93 101 -199 0 -68 -4 -89 -19 -108 -16 -20 -22 -22 -43 -12 -27 12
-38 46 -38 119 l0 44 -55 0 -55 0 0 -33 c0 -49 20 -148 36 -179 8 -15 28 -34
44 -43 38 -20 123 -19 166 1 53 25 67 63 72 188 6 164 -10 201 -125 287 -71
53 -83 80 -83 181 0 89 15 128 49 128 28 0 41 -22 49 -86 l7 -59 54 -3 54 -3
-7 63 c-15 138 -83 193 -202 167z"/>
<path d="M4441 2259 c-92 -18 -116 -75 -125 -299 -9 -213 6 -444 32 -502 27
-63 64 -81 150 -76 57 4 68 8 93 36 15 17 33 48 40 69 17 58 24 501 9 610 -12
81 -16 91 -50 126 -21 20 -47 37 -58 37 -11 0 -26 2 -34 4 -7 2 -33 0 -57 -5z
m85 -114 c18 -43 21 -573 3 -623 -19 -54 -81 -51 -96 6 -5 15 -8 155 -8 312 0
257 2 289 18 313 26 40 64 37 83 -8z"/>
<path d="M2630 1825 l0 -435 125 0 125 0 0 50 0 50 -70 0 -70 0 0 155 0 155
61 0 60 0 -3 43 -3 42 -57 3 -58 3 0 139 0 140 70 0 70 0 0 45 0 45 -125 0
-125 0 0 -435z"/>
<path d="M3840 1825 l0 -435 50 0 50 0 0 205 0 205 55 0 55 0 0 -205 0 -205
55 0 55 0 0 436 0 435 -52 -3 -53 -3 -3 -182 -2 -183 -55 0 -55 0 0 185 0 185
-50 0 -50 0 0 -435z"/>
<path d="M4807 2253 c-4 -3 -7 -199 -7 -435 l0 -428 55 0 55 0 2 183 3 182 68
6 c79 7 107 27 126 91 20 65 25 177 11 257 -15 87 -44 127 -105 141 -46 11
-198 13 -208 3z m205 -105 c9 -15 13 -64 13 -143 0 -148 -7 -165 -70 -165
l-45 0 0 165 0 165 45 0 c35 0 47 -4 57 -22z"/>
<path d="M3010 1800 l0 -40 110 0 110 0 0 40 0 40 -110 0 -110 0 0 -40z"/>
<path d="M2630 1125 l0 -125 48 0 c35 0 54 5 65 18 22 24 22 70 0 94 -13 15
-14 23 -5 44 17 35 15 51 -8 74 -13 13 -33 20 -60 20 l-40 0 0 -125z m84 89
c9 -8 16 -20 16 -26 0 -20 -33 -48 -57 -48 -20 0 -23 5 -23 38 0 21 3 42 7 45
11 12 41 7 57 -9z m14 -106 c7 -7 12 -24 12 -38 0 -35 -17 -50 -57 -50 -33 0
-33 0 -33 50 0 50 0 50 33 50 18 0 38 -5 45 -12z"/>
<path d="M2820 1246 c0 -2 14 -36 30 -74 20 -48 30 -88 30 -121 0 -28 5 -51
10 -51 6 0 10 25 10 56 0 39 9 76 30 125 21 49 25 69 16 69 -7 0 -23 -24 -36
-52 l-22 -53 -24 53 c-13 28 -28 52 -34 52 -5 0 -10 -2 -10 -4z"/>
<path d="M3150 1125 c0 -77 4 -125 10 -125 6 0 10 18 10 39 0 22 8 48 18 61
l18 22 26 -61 c15 -34 31 -61 37 -61 15 0 15 -1 -18 77 l-30 68 30 53 c43 77
10 68 -38 -10 l-38 -63 -3 63 c-5 113 -22 66 -22 -63z"/>
<path d="M3360 1125 l0 -125 45 0 c77 0 109 57 65 113 -13 16 -16 28 -10 32
17 10 11 71 -8 88 -10 10 -35 17 -55 17 l-37 0 0 -125z m71 95 c21 -12 25 -50
7 -68 -7 -7 -22 -12 -35 -12 -21 0 -23 5 -23 45 0 48 11 56 51 35z m23 -116
c20 -19 20 -34 0 -62 -10 -14 -25 -22 -45 -22 -28 0 -29 1 -29 50 0 49 1 50
29 50 16 0 37 -7 45 -16z"/>
<path d="M3570 1125 c0 -77 4 -125 10 -125 6 0 10 48 10 125 0 77 -4 125 -10
125 -6 0 -10 -48 -10 -125z"/>
<path d="M3680 1125 l0 -125 65 0 c37 0 65 4 65 10 0 6 -25 10 -55 10 l-55 0
0 45 0 45 50 0 c38 0 50 4 50 15 0 11 -12 15 -51 15 l-50 0 3 43 3 42 48 3
c68 4 58 22 -13 22 l-60 0 0 -125z"/>
<path d="M3887 1232 c-13 -14 -17 -39 -17 -110 0 -82 2 -93 23 -112 16 -16 30
-20 51 -16 46 10 56 24 56 82 l0 54 -35 0 c-24 0 -35 -5 -35 -15 0 -9 9 -15
25 -15 21 0 25 -5 25 -29 0 -38 -25 -64 -54 -55 -31 10 -36 22 -36 102 0 84
11 112 43 112 29 0 47 -18 47 -47 0 -13 5 -23 10 -23 17 0 11 56 -8 73 -25 22
-75 21 -95 -1z"/>
<path d="M4111 1137 c-34 -124 -36 -137 -21 -137 5 0 12 16 16 35 6 33 9 35
45 35 35 0 39 -3 47 -32 4 -17 13 -33 19 -35 7 -3 -2 46 -21 118 -18 68 -37
124 -43 126 -6 2 -24 -48 -42 -110z m69 -34 c0 -8 -13 -13 -31 -13 -24 0 -29
4 -25 18 3 9 10 37 17 62 l12 45 13 -50 c8 -27 14 -56 14 -62z"/>
<path d="M4314 1236 c-16 -13 -19 -27 -19 -109 0 -79 3 -98 19 -116 21 -24 54
-27 79 -8 20 15 35 77 18 77 -6 0 -11 -6 -11 -14 0 -8 -8 -24 -18 -36 -16 -19
-21 -21 -41 -11 -20 11 -22 18 -19 109 l3 97 28 3 c24 3 30 -2 40 -27 6 -17
15 -31 20 -31 11 0 0 50 -15 67 -14 17 -60 16 -84 -1z"/>
<path d="M4500 1240 c0 -5 23 -10 50 -10 28 0 50 -4 50 -9 0 -5 -22 -48 -50
-97 -67 -120 -66 -124 15 -124 78 0 87 18 11 22 l-53 3 53 95 c71 126 71 130
-11 130 -37 0 -65 -4 -65 -10z"/>
</g>
</svg>
